<svg xmlns="http://www.w3.org/2000/svg" xmlns:xlink="http://www.w3.org/1999/xlink" version="1.1" width="1000" height="1000" viewBox="0 0 1000 1000" xml:space="preserve">
<desc>Created with Fabric.js 3.5.0</desc>
<defs>
</defs>
<rect x="0" y="0" width="100%" height="100%" fill="#ffffff"/>
<g transform="matrix(3.5511 0 0 3.5511 499.9953 499.9973)" id="602258">
<g style="" vector-effect="non-scaling-stroke">
		<g transform="matrix(1 0 0 1 0 -36.5741)">
<path style="stroke: none; stroke-width: 1; stroke-dasharray: none; stroke-linecap: butt; stroke-dashoffset: 0; stroke-linejoin: miter; stroke-miterlimit: 4; is-custom-font: none; font-file-url: none; fill: rgb(37,47,62); fill-rule: nonzero; opacity: 1;" transform=" translate(-128, -39.9258)" d="M 72.392053 55.4384106 C 72.392053 58.5748344 72.7311258 61.1178808 73.3245033 62.9827815 C 74.002649 64.8476821 74.8503311 66.8821192 76.0370861 69.0860927 C 76.4609272 69.7642384 76.6304636 70.4423841 76.6304636 71.0357616 C 76.6304636 71.8834437 76.1218543 72.7311258 75.0198675 73.5788079 L 69.6794702 77.1390728 C 68.9165563 77.6476821 68.1536424 77.9019868 67.4754967 77.9019868 C 66.6278146 77.9019868 65.7801325 77.4781457 64.9324503 76.7152318 C 63.7456954 75.4437086 62.7284768 74.0874172 61.8807947 72.7311258 C 61.0331126 71.2900662 60.1854305 69.6794702 59.2529801 67.7298013 C 52.6410596 75.5284768 44.3337748 79.4278146 34.3311258 79.4278146 C 27.210596 79.4278146 21.5311258 77.3933775 17.3774834 73.3245033 C 13.2238411 69.2556291 11.1046358 63.8304636 11.1046358 57.0490066 C 11.1046358 49.8437086 13.6476821 43.994702 18.818543 39.586755 C 23.989404 35.1788079 30.8556291 32.9748344 39.586755 32.9748344 C 42.4688742 32.9748344 45.4357616 33.2291391 48.5721854 33.6529801 C 51.7086093 34.0768212 54.9298013 34.7549669 58.3205298 35.5178808 L 58.3205298 29.3298013 C 58.3205298 22.8874172 56.9642384 18.394702 54.3364238 15.7668874 C 51.6238411 13.1390728 47.0463576 11.8675497 40.5192053 11.8675497 C 37.5523179 11.8675497 34.5006623 12.2066225 31.3642384 12.9695364 C 28.2278146 13.7324503 25.1761589 14.6649007 22.2092715 15.8516556 C 20.8529801 16.4450331 19.8357616 16.784106 19.2423841 16.9536424 C 18.6490066 17.1231788 18.2251656 17.207947 17.8860927 17.207947 C 16.6993377 17.207947 16.1059603 16.3602649 16.1059603 14.5801325 L 16.1059603 10.4264901 C 16.1059603 9.07019868 16.2754967 8.05298013 16.6993377 7.45960265 C 17.1231788 6.86622517 17.8860927 6.27284768 19.0728477 5.6794702 C 22.0397351 4.15364238 25.6 2.88211921 29.7536424 1.86490066 C 33.9072848 0.762913907 38.3152318 0.254304636 42.9774834 0.254304636 C 53.0649007 0.254304636 60.4397351 2.54304636 65.186755 7.1205298 C 69.8490066 11.6980132 72.2225166 18.6490066 72.2225166 27.9735099 L 72.2225166 55.4384106 L 72.392053 55.4384106 Z M 37.9761589 68.3231788 C 40.7735099 68.3231788 43.6556291 67.8145695 46.7072848 66.797351 C 49.7589404 65.7801325 52.4715232 63.9152318 54.7602649 61.3721854 C 56.1165563 59.7615894 57.1337748 57.981457 57.6423841 55.9470199 C 58.1509934 53.9125828 58.4900662 51.4543046 58.4900662 48.5721854 L 58.4900662 45.0119205 C 56.0317881 44.418543 53.4039735 43.9099338 50.6913907 43.5708609 C 47.9788079 43.2317881 45.3509934 43.0622517 42.7231788 43.0622517 C 37.0437086 43.0622517 32.8900662 44.1642384 30.0927152 46.4529801 C 27.2953642 48.7417219 25.9390728 51.9629139 25.9390728 56.2013245 C 25.9390728 60.1854305 26.9562914 63.1523179 29.0754967 65.186755 C 31.1099338 67.3059603 34.0768212 68.3231788 37.9761589 68.3231788 Z M 106.045033 77.4781457 C 104.519205 77.4781457 103.501987 77.2238411 102.823841 76.6304636 C 102.145695 76.1218543 101.552318 74.9350993 101.043709 73.3245033 L 81.1231788 7.7986755 C 80.6145695 6.10331126 80.3602649 5.0013245 80.3602649 4.40794702 C 80.3602649 3.05165563 81.0384106 2.28874172 82.394702 2.28874172 L 90.7019868 2.28874172 C 92.3125828 2.28874172 93.4145695 2.54304636 94.007947 3.13642384 C 94.6860927 3.64503311 95.194702 4.83178808 95.7033113 6.44238411 L 109.944371 62.5589404 L 123.168212 6.44238411 C 123.592053 4.74701987 124.100662 3.64503311 124.778808 3.13642384 C 125.456954 2.62781457 126.643709 2.28874172 128.169536 2.28874172 L 134.950993 2.28874172 C 136.561589 2.28874172 137.663576 2.54304636 138.341722 3.13642384 C 139.019868 3.64503311 139.613245 4.83178808 139.952318 6.44238411 L 153.345695 63.2370861 L 168.010596 6.44238411 C 168.519205 4.74701987 169.112583 3.64503311 169.70596 3.13642384 C 170.384106 2.62781457 171.486093 2.28874172 173.011921 2.28874172 L 180.895364 2.28874172 C 182.251656 2.28874172 183.01457 2.96688742 183.01457 4.40794702 C 183.01457 4.83178808 182.929801 5.25562914 182.845033 5.76423841 C 182.760265 6.27284768 182.590728 6.95099338 182.251656 7.88344371 L 161.822517 73.4092715 C 161.313907 75.1046358 160.72053 76.2066225 160.042384 76.7152318 C 159.364238 77.2238411 158.262252 77.5629139 156.821192 77.5629139 L 149.531126 77.5629139 C 147.92053 77.5629139 146.818543 77.3086093 146.140397 76.7152318 C 145.462252 76.1218543 144.868874 75.0198675 144.529801 73.3245033 L 131.390728 18.6490066 L 118.336424 73.2397351 C 117.912583 74.9350993 117.403974 76.0370861 116.725828 76.6304636 C 116.047682 77.2238411 114.860927 77.4781457 113.335099 77.4781457 L 106.045033 77.4781457 Z M 214.972185 79.7668874 C 210.564238 79.7668874 206.156291 79.2582781 201.917881 78.2410596 C 197.67947 77.2238411 194.37351 76.1218543 192.169536 74.8503311 C 190.813245 74.0874172 189.880795 73.2397351 189.541722 72.4768212 C 189.202649 71.7139073 189.033113 70.8662252 189.033113 70.1033113 L 189.033113 65.7801325 C 189.033113 64 189.711258 63.1523179 190.982781 63.1523179 C 191.491391 63.1523179 192 63.2370861 192.508609 63.4066225 C 193.017219 63.5761589 193.780132 63.9152318 194.627815 64.2543046 C 197.509934 65.5258278 200.646358 66.5430464 203.952318 67.2211921 C 207.343046 67.8993377 210.649007 68.2384106 214.039735 68.2384106 C 219.380132 68.2384106 223.533775 67.3059603 226.415894 65.4410596 C 229.298013 63.5761589 230.823841 60.8635762 230.823841 57.3880795 C 230.823841 55.0145695 230.060927 53.0649007 228.535099 51.4543046 C 227.009272 49.8437086 224.127152 48.402649 219.97351 47.0463576 L 207.682119 43.2317881 C 201.49404 41.2821192 196.916556 38.4 194.119205 34.5854305 C 191.321854 30.8556291 189.880795 26.7019868 189.880795 22.2940397 C 189.880795 18.7337748 190.643709 15.597351 192.169536 12.8847682 C 193.695364 10.1721854 195.729801 7.7986755 198.272848 5.93377483 C 200.815894 3.98410596 203.698013 2.54304636 207.088742 1.52582781 C 210.47947 0.508609272 214.039735 0.0847682119 217.769536 0.0847682119 C 219.634437 0.0847682119 221.584106 0.169536424 223.449007 0.42384106 C 225.398675 0.678145695 227.178808 1.01721854 228.95894 1.35629139 C 230.654305 1.78013245 232.264901 2.20397351 233.790728 2.71258278 C 235.316556 3.22119205 236.503311 3.72980132 237.350993 4.2384106 C 238.537748 4.91655629 239.38543 5.59470199 239.89404 6.35761589 C 240.402649 7.03576159 240.656954 7.96821192 240.656954 9.15496689 L 240.656954 13.1390728 C 240.656954 14.9192053 239.978808 15.8516556 238.707285 15.8516556 C 238.029139 15.8516556 236.927152 15.5125828 235.486093 14.8344371 C 230.654305 12.6304636 225.229139 11.5284768 219.210596 11.5284768 C 214.378808 11.5284768 210.564238 12.2913907 207.936424 13.9019868 C 205.308609 15.5125828 203.952318 17.9708609 203.952318 21.4463576 C 203.952318 23.8198675 204.8 25.8543046 206.495364 27.4649007 C 208.190728 29.0754967 211.327152 30.6860927 215.819868 32.1271523 L 227.856954 35.9417219 C 233.960265 37.8913907 238.368212 40.6039735 240.996026 44.0794702 C 243.623841 47.5549669 244.895364 51.5390728 244.895364 55.9470199 C 244.895364 59.592053 244.13245 62.8980132 242.691391 65.7801325 C 241.165563 68.6622517 239.131126 71.205298 236.503311 73.2397351 C 233.875497 75.3589404 230.739073 76.8847682 227.09404 77.986755 C 223.27947 79.1735099 219.295364 79.7668874 214.972185 79.7668874 Z" stroke-linecap="round"/>
</g>
		<g transform="matrix(1 0 0 1 0.0029 47.3007)">
<path style="stroke: none; stroke-width: 1; stroke-dasharray: none; stroke-linecap: butt; stroke-dashoffset: 0; stroke-linejoin: miter; stroke-miterlimit: 4; is-custom-font: none; font-file-url: none; fill: rgb(255,153,0); fill-rule: nonzero; opacity: 1;" transform=" translate(-128.0029, -123.8007)" d="M 230.993377 120.964238 C 203.104636 141.562914 162.58543 152.498013 127.745695 152.498013 C 78.9192053 152.498013 34.9245033 134.442384 1.69536424 104.434437 C -0.932450331 102.060927 1.4410596 98.8397351 4.57748344 100.704636 C 40.5192053 121.557616 84.8529801 134.188079 130.712583 134.188079 C 161.65298 134.188079 195.645033 127.745695 226.924503 114.521854 C 231.586755 112.402649 235.570861 117.57351 230.993377 120.964238 Z M 242.606623 107.740397 C 239.046358 103.162914 219.04106 105.536424 209.970861 106.638411 C 207.258278 106.977483 206.834437 104.603974 209.292715 102.823841 C 225.229139 91.6344371 251.422517 94.8556291 254.474172 98.5854305 C 257.525828 102.4 253.62649 128.593377 238.707285 141.139073 C 236.418543 143.088742 234.21457 142.071523 235.231788 139.528477 C 238.622517 131.136424 246.166887 112.233113 242.606623 107.740397 Z" stroke-linecap="round"/>
</g>
</g>
</g>
</svg>